Coordinates
version=1
nRows=9
nColumns=38
inDegrees=yes

Units are S.I. units (second, meters, Newtons, ...)
Angles are in degrees.

endheader
time	pelvis_tilt	pelvis_list	pelvis_rotation	pelvis_tx	pelvis_ty	pelvis_tz	hip_flexion_r	hip_adduction_r	hip_rotation_r	knee_angle_r	ankle_angle_r	subtalar_angle_r	mtp_angle_r	hip_flexion_l	hip_adduction_l	hip_rotation_l	knee_angle_l	ankle_angle_l	subtalar_angle_l	mtp_angle_l	lumbar_extension	lumbar_bending	lumbar_rotation	arm_flex_r	arm_add_r	arm_rot_r	elbow_flex_r	pro_sup_r	wrist_flex_r	wrist_dev_r	arm_flex_l	arm_add_l	arm_rot_l	elbow_flex_l	pro_sup_l	wrist_flex_l	wrist_dev_l
      8.85000000	     -5.04050527	     -0.85766609	     -1.68499879	     -0.13929737	      0.83776706	      0.01119993	      6.84083437	      0.53848158	     -1.48936575	    -11.57057937	      6.16894295	      0.00000000	      0.00000000	      6.37385629	     -1.37612070	     -0.72043504	     -9.73578396	      5.07432049	      0.00000000	      0.00000000	      0.76252707	      1.29191549	      1.41468542	      0.00000000	      0.00000000	      0.00000000	    289.41090984	    109.67714715	      0.00000000	      0.00000000	      0.00000000	      0.00000000	      0.00000000	    289.41090984	     16.10941736	      0.00000000	      0.00000000
      8.86000000	     -5.04124998	     -0.85788468	     -1.68984611	     -0.13929750	      0.83777081	      0.01121232	      6.84561681	      0.54019918	     -1.48799183	    -11.57832132	      6.16965639	      0.00000000	      0.00000000	      6.37450173	     -1.37787959	     -0.72342462	     -9.73670453	      5.07110990	      0.00000000	      0.00000000	      0.76354528	      1.30295318	      1.41606137	      0.00000000	      0.00000000	      0.00000000	    288.96321955	    109.66084348	      0.00000000	      0.00000000	      0.00000000	      0.00000000	      0.00000000	    288.96321955	     16.31479312	      0.00000000	      0.00000000
      8.87000000	     -5.04227668	     -0.85830339	     -1.69390948	     -0.13930910	      0.83778348	      0.01122532	      6.85067435	      0.54168886	     -1.48811604	    -11.58533099	      6.17025597	      0.00000000	      0.00000000	      6.37620330	     -1.38027119	     -0.72671664	     -9.73836061	      5.06922285	      0.00000000	      0.00000000	      0.76431019	      1.31383017	      1.41746094	      0.00000000	      0.00000000	      0.00000000	    288.51235670	    109.64452146	      0.00000000	      0.00000000	      0.00000000	      0.00000000	      0.00000000	    288.51235670	     16.52159923	      0.00000000	      0.00000000
      8.88000000	     -5.04358481	     -0.85835933	     -1.69707810	     -0.13932461	      0.83779351	      0.01124157	      6.85614347	      0.54244772	     -1.48900748	    -11.59165730	      6.17005708	      0.00000000	      0.00000000	      6.37866125	     -1.38250038	     -0.73052140	     -9.74041359	      5.06846738	      0.00000000	      0.00000000	      0.76464132	      1.32410666	      1.41850052	      0.00000000	      0.00000000	      0.00000000	    288.05831623	    109.62818107	      0.00000000	      0.00000000	      0.00000000	      0.00000000	      0.00000000	    288.05831623	     16.72983788	      0.00000000	      0.00000000
      8.89000000	     -5.04509896	     -0.85759388	     -1.69946199	     -0.13933250	      0.83778958	      0.01126117	      6.86199206	      0.54247556	     -1.48994476	    -11.59770755	      6.16847822	      0.00000000	      0.00000000	      6.38146090	     -1.38385343	     -0.73457229	     -9.74267754	      5.06820231	      0.00000000	      0.00000000	      0.76451904	      1.33369220	      1.41879463	      0.00000000	      0.00000000	      0.00000000	    287.60109310	    109.61182232	      0.00000000	      0.00000000	      0.00000000	      0.00000000	      0.00000000	    287.60109310	     16.93951127	      0.00000000	      0.00000000
      8.90000000	     -5.04668206	     -0.85596341	     -1.70118080	     -0.13932757	      0.83776947	      0.01128368	      6.86793768	      0.54200335	     -1.49056181	    -11.60410136	      6.16529720	      0.00000000	      0.00000000	      6.38427566	     -1.38412407	     -0.73820947	     -9.74508477	      5.06750864	      0.00000000	      0.00000000	      0.76409773	      1.34276708	      1.41804614	      0.00000000	      0.00000000	      0.00000000	    287.14068227	    109.59544522	      0.00000000	      0.00000000	      0.00000000	      0.00000000	      0.00000000	    287.14068227	     17.15062160	      0.00000000	      0.00000000
      8.91000000	     -5.04825422	     -0.85382558	     -1.70215635	     -0.13931498	      0.83774199	      0.01130630	      6.87359956	      0.54125017	     -1.49097615	    -11.61136637	      6.16079726	      0.00000000	      0.00000000	      6.38690043	     -1.38361676	     -0.74069773	     -9.74746167	      5.06543927	      0.00000000	      0.00000000	      0.76358773	      1.35158313	      1.41612254	      0.00000000	      0.00000000	      0.00000000	    286.67707869	    109.57904976	      0.00000000	      0.00000000	      0.00000000	      0.00000000	      0.00000000	    286.67707869	     17.36317106	      0.00000000	      0.00000000
      8.92000000	     -5.04983046	     -0.85167012	     -1.70207673	     -0.13930301	      0.83772077	      0.01132508	      6.87875712	      0.54036182	     -1.49167198	    -11.61961272	      6.15571749	      0.00000000	      0.00000000	      6.38916969	     -1.38282655	     -0.74158597	     -9.74935826	      5.06126447	      0.00000000	      0.00000000	      0.76311814	      1.36028011	      1.41309653	      0.00000000	      0.00000000	      0.00000000	    286.21027732	    109.56263594	      0.00000000	      0.00000000	      0.00000000	      0.00000000	      0.00000000	    286.21027732	     17.57716184	      0.00000000	      0.00000000
      8.93000000	     -5.05146270	     -0.84981959	     -1.70061118	     -0.13929490	      0.83771425	      0.01133881	      6.88344172	      0.53947120	     -1.49321486	    -11.62845306	      6.15100804	      0.00000000	      0.00000000	      6.39090661	     -1.38214020	     -0.74089346	     -9.75012793	      5.05462884	      0.00000000	      0.00000000	      0.76268234	      1.36879695	      1.40924347	      0.00000000	      0.00000000	      0.00000000	    285.74027310	    109.54620376	      0.00000000	      0.00000000	      0.00000000	      0.00000000	      0.00000000	    285.74027310	     17.79259615	      0.00000000	      0.00000000
